# xmcd
#
# Track frame offsets:
#  150
#  13189
#  28466
#  50221
#  74465
#  92777
#  103921
#  119936
#  139252
#  162545
#  176075
#  184653
#  206838
#  224942
#  239565
#  260157
#
# Disc length: 3735 seconds
#
# Revision: 0
# Processed by: cddbd v1.5.1PL0 Copyright (c) Steve Scherf et al.
# Submitted via: Collectorz.com_Music_Collector 6.9
#
DISCID=1c0e9510
DTITLE=Various - Taj Mahal - Music Makers With Taj Mahal
DYEAR=2004
DGENRE=Blues -  Blues Acoustic -  Blues Traditional
TTITLE0=Etta Baker - Going Down the Road Feelin' Bad
TTITLE1=Etta Baker - Railroad Bill
TTITLE2=John Dee Holeman - Mistreated Blues
TTITLE3=John Dee Holeman - One Black Rat
TTITLE4=Neal Pattman - Catfish Blues
TTITLE5=Neal Pattman - Disco Twist
TTITLE6=Cootie Stark - Keep on Walkin'
TTITLE7=Cootie Stark - High Yellow
TTITLE8=Dave McGrew - Gambler's Prayer
TTITLE9=Lightnin' Wells - I Mean It's Just Too Bad
TTITLE10=Lightnin' Wells - Black and White Rag
TTITLE11=Cool John Ferguson - Song for Brenda
TTITLE12=Mr. Frank Edwards - Chicken Raid
TTITLE13=Algia Mae Hinton - I Ain't the One You Love - Algia Mae Hinton
TTITLE14=Taj Mahal - Spike Driver Blues
TTITLE15=Taj Mahal - Fishin' Blues
EXTD=
EXTT0=
EXTT1=
EXTT2=
EXTT3=
EXTT4=
EXTT5=
EXTT6=
EXTT7=
EXTT8=
EXTT9=
EXTT10=
EXTT11=
EXTT12=
EXTT13=
EXTT14=
EXTT15=
PLAYORDER=
